<?xml version="1.0" encoding="UTF-8"?>
<svg width="512px" height="512px" viewBox="0 0 512 512" version="1.1" xmlns="http://www.w3.org/2000/svg" xmlns:xlink="http://www.w3.org/1999/xlink">
    <!-- Generator: Sketch 43.1 (39012) - http://www.bohemiancoding.com/sketch -->
    <title>Twalk Logo</title>
    <desc>Created with Sketch.</desc>
    <defs>
        <linearGradient x1="100%" y1="0%" x2="0%" y2="100%" id="linearGradient-1">
            <stop stop-color="#A5D6A7" offset="0%"></stop>
            <stop stop-color="#4DD0E1" offset="100%"></stop>
        </linearGradient>
    </defs>
    <g id="Page-1" stroke="none" stroke-width="1" fill="none" fill-rule="evenodd">
        <g id="Twalk-Logo">
            <rect id="Rectangle-2" fill="url(#linearGradient-1)" x="32" y="32" width="448" height="448" rx="100"></rect>
            <path d="M99,199.004271 C99,143.773437 143.776414,99 198.992535,99 L314.007465,99 C369.231817,99 414,143.762171 414,199.004271 L414,250.995729 C414,306.226563 369.237829,351 313.995729,351 L162,351 L99,414 C99,379.206061 99,306.237829 99,250.995729 L99,199.004271 Z M270.747692,155.900118 C280.246154,155.900118 287.844923,148.295647 287.844923,138.790059 C287.844923,129.284471 280.246154,121.68 270.747692,121.68 C261.249231,121.68 253.650462,129.284471 253.650462,138.790059 C253.650462,148.295647 261.249231,155.900118 270.747692,155.900118 Z M271.887508,214.834765 L318.24,214.834765 L318.24,197.724706 L283.855569,197.724706 L264.858646,166.071097 C262.009108,161.318303 256.879938,158.086403 250.990892,158.086403 C249.281169,158.086403 247.761415,158.371571 246.241662,158.84685 L194.76,174.911294 L194.76,224.340353 L211.857231,224.340353 L211.857231,189.454844 L231.898985,183.181156 L194.76,328.901824 L211.857231,328.901824 L239.117815,251.811503 L261.249231,281.373882 L261.249231,328.901824 L278.346462,328.901824 L278.346462,267.971003 L254.695292,224.815632 L261.629169,197.534594 L271.887508,214.834765 Z" id="Combined-Shape" fill="#FFFFFF"></path>
        </g>
    </g>
</svg>