<?xml version="1.0" encoding="UTF-8"?>
<svg width="320px" height="104px" viewBox="0 0 320 104" version="1.1" xmlns="http://www.w3.org/2000/svg" xmlns:xlink="http://www.w3.org/1999/xlink">
    <!-- Generator: Sketch 43.1 (39012) - http://www.bohemiancoding.com/sketch -->
    <title>Twalk</title>
    <desc>Created with Sketch.</desc>
    <defs></defs>
    <g id="Page-1" stroke="none" stroke-width="1" fill="none" fill-rule="evenodd">
        <g id="Artboard-Copy" transform="translate(-96.000000, -11.000000)" fill="#FFFFFF">
            <path d="M138.050781,113 L132.496094,113 L132.496094,16.671875 L96.9179688,16.671875 L96.9179688,11.5390625 L173.558594,11.5390625 L173.558594,16.671875 L138.050781,16.671875 L138.050781,113 Z M260.535156,39.875 L239.230469,113 L232.902344,113 L212.511719,46.90625 L212.300781,46.90625 L192.050781,113 L185.582031,113 L164.347656,39.875 L170.042969,39.875 L188.816406,106.953125 L188.957031,106.953125 L209.347656,39.875 L215.535156,39.875 L235.855469,106.953125 L236.066406,106.953125 L254.769531,39.875 L260.535156,39.875 Z M290.558594,109.273438 C305.042969,109.273438 316.644531,98.796875 316.644531,85.859375 L316.644531,75.03125 L292.386719,76.859375 C278.464844,77.84375 271.011719,83.5390625 271.011719,93.2421875 C271.011719,102.523438 279.167969,109.273438 290.558594,109.273438 Z M289.785156,114.054688 C275.441406,114.054688 265.527344,105.546875 265.527344,93.2421875 C265.527344,80.796875 274.527344,73.6953125 291.683594,72.359375 L316.644531,70.53125 L316.644531,64.0625 C316.644531,51.3359375 308.980469,43.8125 295.902344,43.8125 C283.527344,43.8125 275.300781,50.140625 273.542969,61.109375 L268.339844,61.109375 C269.605469,47.609375 280.503906,38.890625 295.902344,38.890625 C312.003906,38.890625 322.128906,48.453125 322.128906,63.640625 L322.128906,113 L316.855469,113 L316.855469,97.3203125 L316.714844,97.3203125 C313.058594,107.164062 302.160156,114.054688 289.785156,114.054688 Z M338.511719,113 L343.925781,113 L343.925781,11.5390625 L338.511719,11.5390625 L338.511719,113 Z M366.988281,77.3515625 L366.917969,77.3515625 L366.917969,11.5390625 L361.503906,11.5390625 L361.503906,113 L366.917969,113 L366.917969,83.609375 L376.832031,74.75 L408.894531,113 L415.574219,113 L380.980469,71.375 L415.222656,39.875 L408.121094,39.875 L366.988281,77.3515625 Z" id="Twalk"></path>
        </g>
    </g>
</svg>